Simulation
nRows=36
nColumns=15
endheader
time  TH_x TH_y TH_z SC_y  SC_z  SC_x  AC_y  AC_z  AC_x  GH_y  GH_z  GH_yy  EL_x  PS_y
8.6175  0.000000  0.000000  0.000000  -45.89621848648697  -0.6826218380314593  -3.2620210742644664  54.693533553223425  -1.2122533367599782  6.56962250843239  1.7429755754458087  39.84249499486352  -9.670706637445502  26.87291080598709  120.000000
8.67495  0.000000  0.000000  0.000000  -47.12901762875533  -0.8745693082157653  -3.9813973989379714  53.13015681155705  0.9796062552615635  5.392548851614639  8.306803554296856  38.033350008103874  -14.194852476342763  26.62202313935263  120.000000
8.7324  0.000000  0.000000  0.000000  -46.976679725105136  -0.3857945871545023  -4.807627286080367  53.10857713878922  1.1615021752951369  5.933710893778868  9.139976392489444  37.650014571554706  -14.977856894089173  26.639918246094833  120.000000
8.78985  0.000000  0.000000  0.000000  -45.915841552278046  -0.48303942865317384  -4.35043373475514  54.01182583700121  -0.5695212289073445  7.238835798580224  4.401796435574869  38.713489841998545  -10.53328148382184  26.726151121851466  120.000000
8.8473  0.000000  0.000000  0.000000  -45.70114208559763  -1.5064836083339588  -4.362627415965241  54.834406692242894  -0.1516093413376012  6.738241734018815  4.275095878354332  38.80328142307596  -10.787704043012267  26.249659240025082  120.000000
8.90475  0.000000  0.000000  0.000000  -44.90357435254527  -1.8855585202651557  -5.040118013734208  54.81194761762648  -0.9368322895973809  7.607554385536949  2.583603576611839  40.06676273112802  -9.207309070387186  26.437584433315433  120.000000
8.9622  0.000000  0.000000  0.000000  -44.3540215874201  -1.7020387582105256  -4.945435143893248  54.959188222324926  -1.3059892812344593  7.617412058809767  2.069167596087711  39.82447548994553  -9.11813018170192  26.508744407329814  120.000000
9.01965  0.000000  0.000000  0.000000  -45.514873810866675  -1.9763810458941962  -5.9075738263095445  53.325078573440706  1.1223178470250001  6.326704246595738  8.57381418723869  37.85585316916691  -13.605751708231386  26.156441371953086  120.000000
9.0771  0.000000  0.000000  0.000000  -45.689731176208696  -1.6735640337946371  -6.30873640113532  53.03683391265083  1.0937167433846748  6.2857891473840475  9.77417266293223  38.15210993979546  -14.680217521968174  26.161107428603763  120.000000
9.13455  0.000000  0.000000  0.000000  -44.63800170335244  -1.0680072524044737  -4.772615874129428  54.95171388755887  -1.4320363969463235  8.359658959358367  0.9097826949078307  39.63528649414196  -7.7738321993317285  26.756520957658683  120.000000
9.192  0.000000  0.000000  0.000000  -45.388776257083514  -1.277023583861059  -3.6119596875752644  55.04993782298969  -1.9321227392529494  7.339242431235781  1.9800705659972917  40.09238065675256  -9.329923107255203  26.661597102220966  120.000000
9.24945  0.000000  0.000000  0.000000  -47.19868577142091  -0.8066460988224029  -3.2199027244670746  53.81425248401843  0.2919031419934387  5.808173211815986  8.991849693984369  36.89015917518356  -15.951803556155411  26.507489170479058  120.000000
9.3069  0.000000  0.000000  0.000000  -47.05705272284411  0.11292944599281547  -4.217188165985764  53.70064482953673  0.42001927280154977  7.049464090503101  8.373851433442246  36.598689262155226  -15.349640376713046  26.793804596632334  120.000000
9.36435  0.000000  0.000000  0.000000  -46.19273576159238  -0.40432506435618154  -4.58568813643144  54.193007838450825  -0.5716369251849261  7.732277457288888  5.050159569282433  38.147145156216645  -11.633510900736246  26.723324820284912  120.000000
9.421800000000001  0.000000  0.000000  0.000000  -45.37011624807143  -1.737395076848022  -4.908520735649326  54.53681229850988  -0.0989586244863562  7.192585141242849  3.886649289247876  38.41008982825333  -10.587802220826225  26.39377256924211  120.000000
9.47925  0.000000  0.000000  0.000000  -43.84950196506942  -2.519367230200495  -6.079061216677972  54.153585247768326  -1.0108624343605885  7.581529248054947  2.2611688657169573  40.347240987989146  -9.324359411286817  26.64748115398928  120.000000
9.5367  0.000000  0.000000  0.000000  -43.5654367697409  -2.642625330331944  -5.883016671371246  54.013350176514905  -1.2963139272258144  7.332442277678859  2.773659870965893  40.044156897554046  -9.579441882923735  26.517099834630418  120.000000
9.59415  0.000000  0.000000  0.000000  -44.373370643274335  -2.421541730350856  -5.656756321060214  54.14556166190377  -0.5777525794433401  7.219432226075456  4.434281686158393  38.69860589179323  -10.603983743438944  26.237419036738125  120.000000
9.6516  0.000000  0.000000  0.000000  -44.62216044732885  -1.9171513245434268  -5.819227227005387  54.39537301035743  -0.6078232263827902  7.896247592754558  4.226219522534176  38.494055753648375  -10.8202824204863  26.463203381454193  120.000000
9.70905  0.000000  0.000000  0.000000  -44.74669633004622  -1.6712443434037227  -5.641844605868866  54.60941002820431  -0.5699462382832421  8.18574539376691  3.89883463830473  38.284649430705294  -10.768349082700162  26.516950392542178  120.000000
9.7665  0.000000  0.000000  0.000000  -44.9363141337909  -1.7798144057959946  -5.448180809517518  54.55696385468812  -0.6571381205868034  7.8982316595355035  4.423111736155388  38.628464308428924  -11.166552446912577  26.443564656043684  120.000000
9.82395  0.000000  0.000000  0.000000  -44.90199289678501  -1.7294989817596815  -5.167694562070055  54.44804852680967  -0.8579261401376265  7.767663929296468  4.349754982471048  38.76754615053132  -11.201767175813847  26.537397335042677  120.000000
9.8814  0.000000  0.000000  0.000000  -44.91614568280537  -1.7147321817408991  -5.086616412899441  54.44878079972899  -0.9342091651268967  7.710496647865602  4.148421484192318  38.99635856210459  -10.877337910367004  26.480046766571725  120.000000
9.93885  0.000000  0.000000  0.000000  -44.99176537163394  -1.786460562374085  -4.988945716308632  54.42851845560876  -1.0115838724813169  7.649511486120294  3.9296848717697492  39.20200408770747  -10.621809756147448  26.470816636347  120.000000
9.9963  0.000000  0.000000  0.000000  -44.98607803236433  -1.7786651019422304  -4.9065183169399464  54.479580579002764  -1.043968220244458  7.611367561208122  3.5526521667341817  39.219917376446546  -10.442989452222722  26.478822729238164  120.000000
10.05375  0.000000  0.000000  0.000000  -45.03209809237547  -1.7193746587739596  -4.781049586279642  54.44864571083208  -1.2015250267587392  7.643281050414095  3.1642339736330327  39.26943016245642  -9.979433029927721  26.48436211509149  120.000000
10.1112  0.000000  0.000000  0.000000  -45.17951354779708  -1.591339374975837  -4.551806135405908  54.253108232099066  -1.351668513469738  7.368195390388508  3.641877114789673  39.08745326542379  -10.401528251834714  26.520303446667263  120.000000
10.16865  0.000000  0.000000  0.000000  -45.431724448483145  -1.456065107355096  -4.485779870626103  53.939125828590385  -1.0003005723500682  7.117891346505113  4.667938614492567  38.42118737466369  -11.227253688453118  26.554755724455855  120.000000
10.2261  0.000000  0.000000  0.000000  -45.47981830310812  -1.3994568798480613  -4.873633415977594  53.935305953444825  -0.6626296439550479  7.298252961078289  4.91491987546462  38.252263181849486  -11.516597151302783  26.611970531416027  120.000000
10.28355  0.000000  0.000000  0.000000  -45.26121971837832  -1.4674456002661842  -5.137692524063179  54.160465864941564  -0.7786736615667094  7.769568081859735  4.077365986079172  38.49453361192585  -10.912463719439874  26.670548302006956  120.000000
10.341000000000001  0.000000  0.000000  0.000000  -45.032222676151925  -1.7097905030074332  -5.370996453304874  54.447654322468686  -0.6333937278129848  7.931791656324028  3.8105828700476714  38.48402720498414  -10.92830809189158  26.56087020270675  120.000000
10.39845  0.000000  0.000000  0.000000  -44.6866247102372  -2.0272491830318775  -5.621313751452191  54.37238438912277  -0.7819267878120731  7.958149697725766  4.015708907169943  38.69802721447608  -11.084293616152625  26.56934096368323  120.000000
10.4559  0.000000  0.000000  0.000000  -44.414538240499596  -2.192852357359617  -5.441098068118979  54.19174878019181  -1.1885312662595715  7.630898698006269  4.841498969272803  38.704006358737125  -11.521670297843645  26.549787906390655  120.000000
10.51335  0.000000  0.000000  0.000000  -44.4090724996356  -2.2315895732329416  -5.22886233471275  54.14360590917113  -1.2377370003572143  7.517226033602277  5.586749142179859  38.24520898786387  -11.628147601135993  26.486720185469267  120.000000
10.5708  0.000000  0.000000  0.000000  -44.39930230035991  -2.2515392739264906  -5.232831139156911  54.2563068032441  -1.3228328378723129  7.57249376712841  6.029564216325732  38.07364966048356  -11.739368190716029  26.465211447273127  120.000000
10.62825  0.000000  0.000000  0.000000  -44.25337054712315  -2.2807264209921643  -5.21512052454309  54.2953686298329  -1.4496599474653962  7.705998720896348  6.148013196835253  37.93140457413083  -11.714325458741257  26.525588656154813  120.000000
